<?xml version="1.0" encoding="UTF-8"?>
<!DOCTYPE svg PUBLIC "-//W3C//DTD SVG 1.1//EN" "http://www.w3.org/Graphics/SVG/1.1/DTD/svg11.dtd">
<svg xmlns="http://www.w3.org/2000/svg" xml:space="preserve" width="12.9921in" height="19.0157in" version="1.1" style="shape-rendering:geometricPrecision; text-rendering:geometricPrecision; image-rendering:optimizeQuality; fill-rule:evenodd; clip-rule:evenodd"
viewBox="0 0 1299213 1901575"
 xmlns:xlink="http://www.w3.org/1999/xlink">
 <defs>
  <style type="text/css">
   <![CDATA[
    .str0 {stroke:#FEFEFE;stroke-width:694;stroke-miterlimit:2.61313}
    .fil0 {fill:#FEFEFE}
   ]]>
  </style>
 </defs>
 <g id="Layer_x0020_1">
  <metadata id="CorelCorpID_0Corel-Layer"/>
  <g id="_1536397896">
   <path class="fil0 str0" d="M827243 1062248c-275,-59567 20599,-50712 69464,-59920 36771,-6927 76561,-15215 119938,-13121 2608,58578 -5115,66452 -60331,72096 -36811,3763 -91921,3355 -129070,944zm-298157 -52630c33775,-6841 207018,-9446 233040,1191 27197,54983 -51681,39555 -95949,39528 -38799,-26 -102809,4797 -139919,-5306l2828 -35413zm-247043 -20998c44310,-791 154070,12352 182559,30793l2249 43014c-69394,2579 -131287,6197 -183296,-18121l-1512 -55686zm84757 -111312c-12387,-34507 38488,-101910 52458,-126034l453530 844c16172,17191 64063,95642 62678,121329 -26976,11210 -512079,11894 -568666,3862zm-36367 -98956l-102084 -899 577 55721c14836,5725 12100,4134 24574,8500 19199,6719 13033,2760 28077,14179 -1563,64530 -58300,35166 -57738,122676l3600 308967c35063,20173 68469,13350 122363,13317 30674,-11 26443,-2456 47818,-15824l4973 -41020 489708 -806c6713,39659 6878,57837 51510,57771 28522,-42 63192,1499 90945,-249 44701,-2813 38513,-28429 38548,-76805l1303 -252087c-2441,-76064 -52123,-54740 -65729,-115939l55763 -21374 5029 -56552 -100150 3355c-8053,-9631 -17105,-27990 -25013,-42000 -12742,-22580 -17021,-26196 -29328,-40604 -114826,-6720 -354675,-2333 -481443,-1962 -87146,501 -64070,28143 -103305,81635z"/>
   <path class="fil0 str0" d="M26141 991441c390,572877 677141,827684 1058731,451080 110101,-108664 184356,-255689 184356,-451080 0,-109389 -32269,-235006 -88700,-320999 -31150,-47472 -53673,-73361 -89113,-110551 -29276,-30720 -82938,-83472 -113964,-78924 -16965,2487 -16701,2533 -17224,20621 -855,29435 -3054,7125 6333,20343 5240,7380 20374,15967 26487,20394 50708,36709 106017,96341 138588,151207 242832,409056 -51160,873586 -484827,873202 -503680,-448 -755401,-604566 -408922,-964916 82329,-85627 223603,-171847 383096,-172707l64645 39206c36884,32016 20279,20006 83992,26252 36469,3574 11490,15131 59054,13170l1213 -209291c-65542,-3175 -4758,16567 -72888,17382 -89092,1063 -37212,20244 -97344,40867 -77589,26609 14378,8007 -115968,27314 -285095,42227 -517749,305323 -517544,607430z"/>
   <rect class="fil0 str0" x="854195" y="332125" width="92007" height="33898" rx="13459" ry="13459"/>
   <rect class="fil0 str0" x="854195" y="419976" width="92007" height="33898" rx="13459" ry="13459"/>
  </g>
 </g>
</svg>
